<?xml version="1.0" encoding="UTF-8"?>
<svg xmlns="http://www.w3.org/2000/svg" version="1.1" width="500" height="500" viewBox="0 0 500 500"><g transform="scale(16.129)"><g transform="translate(1,1)"><g><g transform="translate(3.5,3.5)"><path fill-rule="evenodd" d="M-3.5 0C-3.5 3.5 -3.5 3.5 0 3.5C3.5 3.5 3.5 3.5 3.5 0C3.5 -3.5 3.5 -3.5 0 -3.5C-3.5 -3.5 -3.5 -3.5 -3.5 0ZM-2.5 0L-2.5 -1.5A1 1 0 0 1 -1.5 -2.5L1.5 -2.5A1 1 0 0 1 2.5 -1.5L2.5 1.5A1 1 0 0 1 1.5 2.5L-1.5 2.5A1 1 0 0 1 -2.5 1.5Z" fill="#faa906"/><path fill-rule="evenodd" d="M-1.5 -1.5L1.5 -1.5L1.5 1.5L-1.5 1.5Z" fill="#faa906"/></g></g><g><g transform="translate(25.5,3.5)"><g transform="rotate(90)"><path fill-rule="evenodd" d="M-3.5 0C-3.5 3.5 -3.5 3.5 0 3.5C3.5 3.5 3.5 3.5 3.5 0C3.5 -3.5 3.5 -3.5 0 -3.5C-3.5 -3.5 -3.5 -3.5 -3.5 0ZM-2.5 0L-2.5 -1.5A1 1 0 0 1 -1.5 -2.5L1.5 -2.5A1 1 0 0 1 2.5 -1.5L2.5 1.5A1 1 0 0 1 1.5 2.5L-1.5 2.5A1 1 0 0 1 -2.5 1.5Z" fill="#faa906"/><path fill-rule="evenodd" d="M-1.5 -1.5L1.5 -1.5L1.5 1.5L-1.5 1.5Z" fill="#faa906"/></g></g></g><g><g transform="translate(3.5,25.5)"><g transform="rotate(-90)"><path fill-rule="evenodd" d="M-3.5 0C-3.5 3.5 -3.5 3.5 0 3.5C3.5 3.5 3.5 3.5 3.5 0C3.5 -3.5 3.5 -3.5 0 -3.5C-3.5 -3.5 -3.5 -3.5 -3.5 0ZM-2.5 0L-2.5 -1.5A1 1 0 0 1 -1.5 -2.5L1.5 -2.5A1 1 0 0 1 2.5 -1.5L2.5 1.5A1 1 0 0 1 1.5 2.5L-1.5 2.5A1 1 0 0 1 -2.5 1.5Z" fill="#faa906"/><path fill-rule="evenodd" d="M-1.5 -1.5L1.5 -1.5L1.5 1.5L-1.5 1.5Z" fill="#faa906"/></g></g></g><path fill-rule="evenodd" d="M11 0L11 1L10 1L10 2L12 2L12 3L11 3L11 4L12 4L12 5L9 5L9 4L10 4L10 3L9 3L9 2L8 2L8 8L9 8L9 9L8 9L8 11L7 11L7 10L6 10L6 9L7 9L7 8L2 8L2 9L4 9L4 10L1 10L1 8L0 8L0 13L1 13L1 14L0 14L0 16L1 16L1 15L2 15L2 13L3 13L3 12L4 12L4 15L3 15L3 17L2 17L2 21L3 21L3 20L5 20L5 19L4 19L4 18L5 18L5 17L8 17L8 18L6 18L6 19L7 19L7 20L6 20L6 21L7 21L7 20L8 20L8 18L9 18L9 20L10 20L10 21L8 21L8 22L10 22L10 23L8 23L8 27L9 27L9 25L10 25L10 28L8 28L8 29L10 29L10 28L13 28L13 29L14 29L14 28L15 28L15 29L16 29L16 28L15 28L15 27L19 27L19 28L18 28L18 29L19 29L19 28L20 28L20 26L21 26L21 27L22 27L22 25L23 25L23 27L24 27L24 25L25 25L25 23L26 23L26 25L29 25L29 23L27 23L27 22L28 22L28 20L25 20L25 19L27 19L27 18L26 18L26 17L24 17L24 16L25 16L25 15L27 15L27 16L29 16L29 14L28 14L28 13L27 13L27 14L26 14L26 13L24 13L24 12L26 12L26 11L27 11L27 10L28 10L28 9L27 9L27 8L22 8L22 9L24 9L24 10L25 10L25 11L21 11L21 9L19 9L19 8L20 8L20 7L21 7L21 5L19 5L19 4L18 4L18 5L16 5L16 4L17 4L17 2L19 2L19 3L20 3L20 2L21 2L21 0L18 0L18 1L17 1L17 0L15 0L15 1L17 1L17 2L16 2L16 4L12 4L12 3L13 3L13 2L12 2L12 1L13 1L13 0ZM19 1L19 2L20 2L20 1ZM14 2L14 3L15 3L15 2ZM18 5L18 6L17 6L17 7L16 7L16 6L15 6L15 7L14 7L14 6L13 6L13 7L12 7L12 6L11 6L11 7L10 7L10 6L9 6L9 8L10 8L10 9L9 9L9 10L10 10L10 13L8 13L8 12L9 12L9 11L8 11L8 12L7 12L7 11L6 11L6 12L7 12L7 13L6 13L6 14L5 14L5 15L4 15L4 16L7 16L7 15L6 15L6 14L7 14L7 13L8 13L8 17L10 17L10 19L11 19L11 22L12 22L12 19L13 19L13 21L15 21L15 20L16 20L16 22L15 22L15 23L14 23L14 24L13 24L13 25L14 25L14 26L15 26L15 25L14 25L14 24L16 24L16 25L17 25L17 26L20 26L20 24L19 24L19 23L16 23L16 22L18 22L18 21L20 21L20 20L19 20L19 19L21 19L21 20L22 20L22 19L23 19L23 18L24 18L24 19L25 19L25 18L24 18L24 17L23 17L23 18L20 18L20 16L21 16L21 17L22 17L22 16L21 16L21 14L20 14L20 16L18 16L18 15L19 15L19 13L20 13L20 12L21 12L21 13L22 13L22 12L21 12L21 11L20 11L20 10L19 10L19 11L18 11L18 12L16 12L16 11L17 11L17 10L18 10L18 9L17 9L17 8L18 8L18 6L19 6L19 7L20 7L20 6L19 6L19 5ZM11 7L11 8L12 8L12 9L10 9L10 10L11 10L11 11L12 11L12 12L11 12L11 13L13 13L13 15L12 15L12 14L11 14L11 17L13 17L13 16L14 16L14 17L16 17L16 18L15 18L15 19L14 19L14 20L15 20L15 19L19 19L19 18L17 18L17 17L16 17L16 13L13 13L13 10L12 10L12 9L13 9L13 8L14 8L14 9L15 9L15 10L17 10L17 9L16 9L16 7L15 7L15 8L14 8L14 7L13 7L13 8L12 8L12 7ZM26 9L26 10L27 10L27 9ZM4 10L4 11L5 11L5 10ZM1 11L1 13L2 13L2 12L3 12L3 11ZM14 11L14 12L15 12L15 11ZM19 11L19 12L18 12L18 13L19 13L19 12L20 12L20 11ZM28 11L28 12L29 12L29 11ZM23 13L23 14L22 14L22 15L25 15L25 14L24 14L24 13ZM17 14L17 15L18 15L18 14ZM14 15L14 16L15 16L15 15ZM0 17L0 21L1 21L1 17ZM28 17L28 19L29 19L29 17ZM21 21L21 24L24 24L24 21ZM25 21L25 22L27 22L27 21ZM22 22L22 23L23 23L23 22ZM10 24L10 25L11 25L11 26L12 26L12 24ZM17 24L17 25L18 25L18 24ZM26 26L26 27L25 27L25 28L24 28L24 29L27 29L27 27L28 27L28 28L29 28L29 27L28 27L28 26ZM13 27L13 28L14 28L14 27ZM21 28L21 29L23 29L23 28Z" fill="#faa906"/></g></g></svg>
