<?xml version="1.0" standalone="no"?>
<svg xmlns="http://www.w3.org/2000/svg" width="500" height="500"><defs><clipPath id="clip-path-dot-color"><rect x="18" y="178" width="16" height="16" transform="rotate(0,26,186)"/><rect x="18" y="194" width="16" height="16" transform="rotate(0,26,202)"/><rect x="18" y="210" width="16" height="16" transform="rotate(0,26,218)"/><rect x="18" y="290" width="16" height="16" transform="rotate(0,26,298)"/><rect x="18" y="306" width="16" height="16" transform="rotate(0,26,314)"/><rect x="18" y="322" width="16" height="16" transform="rotate(0,26,330)"/><rect x="18" y="338" width="16" height="16" transform="rotate(0,26,346)"/><rect x="34" y="146" width="16" height="16" transform="rotate(0,42,154)"/><rect x="34" y="162" width="16" height="16" transform="rotate(0,42,170)"/><rect x="34" y="194" width="16" height="16" transform="rotate(0,42,202)"/><rect x="34" y="226" width="16" height="16" transform="rotate(0,42,234)"/><rect x="34" y="274" width="16" height="16" transform="rotate(0,42,282)"/><rect x="34" y="290" width="16" height="16" transform="rotate(0,42,298)"/><rect x="34" y="306" width="16" height="16" transform="rotate(0,42,314)"/><rect x="34" y="322" width="16" height="16" transform="rotate(0,42,330)"/><rect x="50" y="194" width="16" height="16" transform="rotate(0,58,202)"/><rect x="50" y="210" width="16" height="16" transform="rotate(0,58,218)"/><rect x="50" y="226" width="16" height="16" transform="rotate(0,58,234)"/><rect x="50" y="258" width="16" height="16" transform="rotate(0,58,266)"/><rect x="50" y="306" width="16" height="16" transform="rotate(0,58,314)"/><rect x="50" y="338" width="16" height="16" transform="rotate(0,58,346)"/><rect x="66" y="146" width="16" height="16" transform="rotate(0,74,154)"/><rect x="66" y="162" width="16" height="16" transform="rotate(0,74,170)"/><rect x="66" y="178" width="16" height="16" transform="rotate(0,74,186)"/><rect x="66" y="226" width="16" height="16" transform="rotate(0,74,234)"/><rect x="66" y="274" width="16" height="16" transform="rotate(0,74,282)"/><rect x="66" y="290" width="16" height="16" transform="rotate(0,74,298)"/><rect x="66" y="322" width="16" height="16" transform="rotate(0,74,330)"/><rect x="82" y="146" width="16" height="16" transform="rotate(0,90,154)"/><rect x="82" y="162" width="16" height="16" transform="rotate(0,90,170)"/><rect x="82" y="242" width="16" height="16" transform="rotate(0,90,250)"/><rect x="82" y="306" width="16" height="16" transform="rotate(0,90,314)"/><rect x="82" y="322" width="16" height="16" transform="rotate(0,90,330)"/><rect x="98" y="162" width="16" height="16" transform="rotate(0,106,170)"/><rect x="98" y="178" width="16" height="16" transform="rotate(0,106,186)"/><rect x="98" y="194" width="16" height="16" transform="rotate(0,106,202)"/><rect x="98" y="210" width="16" height="16" transform="rotate(0,106,218)"/><rect x="98" y="226" width="16" height="16" transform="rotate(0,106,234)"/><rect x="98" y="242" width="16" height="16" transform="rotate(0,106,250)"/><rect x="98" y="274" width="16" height="16" transform="rotate(0,106,282)"/><rect x="114" y="146" width="16" height="16" transform="rotate(0,122,154)"/><rect x="114" y="178" width="16" height="16" transform="rotate(0,122,186)"/><rect x="114" y="210" width="16" height="16" transform="rotate(0,122,218)"/><rect x="114" y="242" width="16" height="16" transform="rotate(0,122,250)"/><rect x="114" y="274" width="16" height="16" transform="rotate(0,122,282)"/><rect x="114" y="306" width="16" height="16" transform="rotate(0,122,314)"/><rect x="114" y="338" width="16" height="16" transform="rotate(0,122,346)"/><rect x="130" y="146" width="16" height="16" transform="rotate(0,138,154)"/><rect x="130" y="290" width="16" height="16" transform="rotate(0,138,298)"/><rect x="130" y="306" width="16" height="16" transform="rotate(0,138,314)"/><rect x="130" y="322" width="16" height="16" transform="rotate(0,138,330)"/><rect x="130" y="338" width="16" height="16" transform="rotate(0,138,346)"/><rect x="146" y="34" width="16" height="16" transform="rotate(0,154,42)"/><rect x="146" y="66" width="16" height="16" transform="rotate(0,154,74)"/><rect x="146" y="82" width="16" height="16" transform="rotate(0,154,90)"/><rect x="146" y="98" width="16" height="16" transform="rotate(0,154,106)"/><rect x="146" y="114" width="16" height="16" transform="rotate(0,154,122)"/><rect x="146" y="146" width="16" height="16" transform="rotate(0,154,154)"/><rect x="146" y="162" width="16" height="16" transform="rotate(0,154,170)"/><rect x="146" y="178" width="16" height="16" transform="rotate(0,154,186)"/><rect x="146" y="194" width="16" height="16" transform="rotate(0,154,202)"/><rect x="146" y="242" width="16" height="16" transform="rotate(0,154,250)"/><rect x="146" y="274" width="16" height="16" transform="rotate(0,154,282)"/><rect x="146" y="354" width="16" height="16" transform="rotate(0,154,362)"/><rect x="146" y="370" width="16" height="16" transform="rotate(0,154,378)"/><rect x="146" y="402" width="16" height="16" transform="rotate(0,154,410)"/><rect x="146" y="418" width="16" height="16" transform="rotate(0,154,426)"/><rect x="146" y="450" width="16" height="16" transform="rotate(0,154,458)"/><rect x="162" y="18" width="16" height="16" transform="rotate(0,170,26)"/><rect x="162" y="50" width="16" height="16" transform="rotate(0,170,58)"/><rect x="162" y="66" width="16" height="16" transform="rotate(0,170,74)"/><rect x="162" y="130" width="16" height="16" transform="rotate(0,170,138)"/><rect x="162" y="162" width="16" height="16" transform="rotate(0,170,170)"/><rect x="162" y="178" width="16" height="16" transform="rotate(0,170,186)"/><rect x="162" y="274" width="16" height="16" transform="rotate(0,170,282)"/><rect x="162" y="290" width="16" height="16" transform="rotate(0,170,298)"/><rect x="162" y="306" width="16" height="16" transform="rotate(0,170,314)"/><rect x="162" y="322" width="16" height="16" transform="rotate(0,170,330)"/><rect x="162" y="338" width="16" height="16" transform="rotate(0,170,346)"/><rect x="162" y="402" width="16" height="16" transform="rotate(0,170,410)"/><rect x="162" y="418" width="16" height="16" transform="rotate(0,170,426)"/><rect x="162" y="450" width="16" height="16" transform="rotate(0,170,458)"/><rect x="178" y="18" width="16" height="16" transform="rotate(0,186,26)"/><rect x="178" y="50" width="16" height="16" transform="rotate(0,186,58)"/><rect x="178" y="114" width="16" height="16" transform="rotate(0,186,122)"/><rect x="178" y="162" width="16" height="16" transform="rotate(0,186,170)"/><rect x="178" y="194" width="16" height="16" transform="rotate(0,186,202)"/><rect x="178" y="210" width="16" height="16" transform="rotate(0,186,218)"/><rect x="178" y="226" width="16" height="16" transform="rotate(0,186,234)"/><rect x="178" y="258" width="16" height="16" transform="rotate(0,186,266)"/><rect x="178" y="274" width="16" height="16" transform="rotate(0,186,282)"/><rect x="178" y="290" width="16" height="16" transform="rotate(0,186,298)"/><rect x="178" y="306" width="16" height="16" transform="rotate(0,186,314)"/><rect x="178" y="354" width="16" height="16" transform="rotate(0,186,362)"/><rect x="178" y="370" width="16" height="16" transform="rotate(0,186,378)"/><rect x="178" y="386" width="16" height="16" transform="rotate(0,186,394)"/><rect x="178" y="402" width="16" height="16" transform="rotate(0,186,410)"/><rect x="194" y="34" width="16" height="16" transform="rotate(0,202,42)"/><rect x="194" y="50" width="16" height="16" transform="rotate(0,202,58)"/><rect x="194" y="82" width="16" height="16" transform="rotate(0,202,90)"/><rect x="194" y="130" width="16" height="16" transform="rotate(0,202,138)"/><rect x="194" y="146" width="16" height="16" transform="rotate(0,202,154)"/><rect x="194" y="210" width="16" height="16" transform="rotate(0,202,218)"/><rect x="194" y="226" width="16" height="16" transform="rotate(0,202,234)"/><rect x="194" y="242" width="16" height="16" transform="rotate(0,202,250)"/><rect x="194" y="290" width="16" height="16" transform="rotate(0,202,298)"/><rect x="194" y="338" width="16" height="16" transform="rotate(0,202,346)"/><rect x="194" y="402" width="16" height="16" transform="rotate(0,202,410)"/><rect x="194" y="418" width="16" height="16" transform="rotate(0,202,426)"/><rect x="194" y="466" width="16" height="16" transform="rotate(0,202,474)"/><rect x="210" y="18" width="16" height="16" transform="rotate(0,218,26)"/><rect x="210" y="34" width="16" height="16" transform="rotate(0,218,42)"/><rect x="210" y="50" width="16" height="16" transform="rotate(0,218,58)"/><rect x="210" y="114" width="16" height="16" transform="rotate(0,218,122)"/><rect x="210" y="146" width="16" height="16" transform="rotate(0,218,154)"/><rect x="210" y="194" width="16" height="16" transform="rotate(0,218,202)"/><rect x="210" y="210" width="16" height="16" transform="rotate(0,218,218)"/><rect x="210" y="258" width="16" height="16" transform="rotate(0,218,266)"/><rect x="210" y="274" width="16" height="16" transform="rotate(0,218,282)"/><rect x="210" y="338" width="16" height="16" transform="rotate(0,218,346)"/><rect x="210" y="354" width="16" height="16" transform="rotate(0,218,362)"/><rect x="210" y="370" width="16" height="16" transform="rotate(0,218,378)"/><rect x="210" y="418" width="16" height="16" transform="rotate(0,218,426)"/><rect x="210" y="450" width="16" height="16" transform="rotate(0,218,458)"/><rect x="226" y="18" width="16" height="16" transform="rotate(0,234,26)"/><rect x="226" y="34" width="16" height="16" transform="rotate(0,234,42)"/><rect x="226" y="82" width="16" height="16" transform="rotate(0,234,90)"/><rect x="226" y="98" width="16" height="16" transform="rotate(0,234,106)"/><rect x="226" y="130" width="16" height="16" transform="rotate(0,234,138)"/><rect x="226" y="146" width="16" height="16" transform="rotate(0,234,154)"/><rect x="226" y="162" width="16" height="16" transform="rotate(0,234,170)"/><rect x="226" y="178" width="16" height="16" transform="rotate(0,234,186)"/><rect x="226" y="194" width="16" height="16" transform="rotate(0,234,202)"/><rect x="226" y="226" width="16" height="16" transform="rotate(0,234,234)"/><rect x="226" y="242" width="16" height="16" transform="rotate(0,234,250)"/><rect x="226" y="258" width="16" height="16" transform="rotate(0,234,266)"/><rect x="226" y="274" width="16" height="16" transform="rotate(0,234,282)"/><rect x="226" y="370" width="16" height="16" transform="rotate(0,234,378)"/><rect x="226" y="402" width="16" height="16" transform="rotate(0,234,410)"/><rect x="226" y="434" width="16" height="16" transform="rotate(0,234,442)"/><rect x="226" y="466" width="16" height="16" transform="rotate(0,234,474)"/><rect x="242" y="50" width="16" height="16" transform="rotate(0,250,58)"/><rect x="242" y="114" width="16" height="16" transform="rotate(0,250,122)"/><rect x="242" y="130" width="16" height="16" transform="rotate(0,250,138)"/><rect x="242" y="162" width="16" height="16" transform="rotate(0,250,170)"/><rect x="242" y="178" width="16" height="16" transform="rotate(0,250,186)"/><rect x="242" y="194" width="16" height="16" transform="rotate(0,250,202)"/><rect x="242" y="210" width="16" height="16" transform="rotate(0,250,218)"/><rect x="242" y="258" width="16" height="16" transform="rotate(0,250,266)"/><rect x="242" y="274" width="16" height="16" transform="rotate(0,250,282)"/><rect x="242" y="306" width="16" height="16" transform="rotate(0,250,314)"/><rect x="242" y="322" width="16" height="16" transform="rotate(0,250,330)"/><rect x="242" y="338" width="16" height="16" transform="rotate(0,250,346)"/><rect x="242" y="386" width="16" height="16" transform="rotate(0,250,394)"/><rect x="242" y="418" width="16" height="16" transform="rotate(0,250,426)"/><rect x="242" y="466" width="16" height="16" transform="rotate(0,250,474)"/><rect x="258" y="50" width="16" height="16" transform="rotate(0,266,58)"/><rect x="258" y="66" width="16" height="16" transform="rotate(0,266,74)"/><rect x="258" y="98" width="16" height="16" transform="rotate(0,266,106)"/><rect x="258" y="130" width="16" height="16" transform="rotate(0,266,138)"/><rect x="258" y="194" width="16" height="16" transform="rotate(0,266,202)"/><rect x="258" y="210" width="16" height="16" transform="rotate(0,266,218)"/><rect x="258" y="242" width="16" height="16" transform="rotate(0,266,250)"/><rect x="258" y="258" width="16" height="16" transform="rotate(0,266,266)"/><rect x="258" y="322" width="16" height="16" transform="rotate(0,266,330)"/><rect x="258" y="338" width="16" height="16" transform="rotate(0,266,346)"/><rect x="258" y="402" width="16" height="16" transform="rotate(0,266,410)"/><rect x="258" y="418" width="16" height="16" transform="rotate(0,266,426)"/><rect x="258" y="434" width="16" height="16" transform="rotate(0,266,442)"/><rect x="258" y="450" width="16" height="16" transform="rotate(0,266,458)"/><rect x="258" y="466" width="16" height="16" transform="rotate(0,266,474)"/><rect x="274" y="18" width="16" height="16" transform="rotate(0,282,26)"/><rect x="274" y="66" width="16" height="16" transform="rotate(0,282,74)"/><rect x="274" y="82" width="16" height="16" transform="rotate(0,282,90)"/><rect x="274" y="114" width="16" height="16" transform="rotate(0,282,122)"/><rect x="274" y="130" width="16" height="16" transform="rotate(0,282,138)"/><rect x="274" y="146" width="16" height="16" transform="rotate(0,282,154)"/><rect x="274" y="162" width="16" height="16" transform="rotate(0,282,170)"/><rect x="274" y="178" width="16" height="16" transform="rotate(0,282,186)"/><rect x="274" y="194" width="16" height="16" transform="rotate(0,282,202)"/><rect x="274" y="290" width="16" height="16" transform="rotate(0,282,298)"/><rect x="274" y="306" width="16" height="16" transform="rotate(0,282,314)"/><rect x="274" y="338" width="16" height="16" transform="rotate(0,282,346)"/><rect x="274" y="418" width="16" height="16" transform="rotate(0,282,426)"/><rect x="274" y="450" width="16" height="16" transform="rotate(0,282,458)"/><rect x="290" y="18" width="16" height="16" transform="rotate(0,298,26)"/><rect x="290" y="50" width="16" height="16" transform="rotate(0,298,58)"/><rect x="290" y="146" width="16" height="16" transform="rotate(0,298,154)"/><rect x="290" y="162" width="16" height="16" transform="rotate(0,298,170)"/><rect x="290" y="178" width="16" height="16" transform="rotate(0,298,186)"/><rect x="290" y="194" width="16" height="16" transform="rotate(0,298,202)"/><rect x="290" y="226" width="16" height="16" transform="rotate(0,298,234)"/><rect x="290" y="290" width="16" height="16" transform="rotate(0,298,298)"/><rect x="290" y="322" width="16" height="16" transform="rotate(0,298,330)"/><rect x="290" y="338" width="16" height="16" transform="rotate(0,298,346)"/><rect x="290" y="402" width="16" height="16" transform="rotate(0,298,410)"/><rect x="290" y="418" width="16" height="16" transform="rotate(0,298,426)"/><rect x="306" y="18" width="16" height="16" transform="rotate(0,314,26)"/><rect x="306" y="34" width="16" height="16" transform="rotate(0,314,42)"/><rect x="306" y="66" width="16" height="16" transform="rotate(0,314,74)"/><rect x="306" y="114" width="16" height="16" transform="rotate(0,314,122)"/><rect x="306" y="146" width="16" height="16" transform="rotate(0,314,154)"/><rect x="306" y="162" width="16" height="16" transform="rotate(0,314,170)"/><rect x="306" y="178" width="16" height="16" transform="rotate(0,314,186)"/><rect x="306" y="226" width="16" height="16" transform="rotate(0,314,234)"/><rect x="306" y="274" width="16" height="16" transform="rotate(0,314,282)"/><rect x="306" y="306" width="16" height="16" transform="rotate(0,314,314)"/><rect x="306" y="322" width="16" height="16" transform="rotate(0,314,330)"/><rect x="306" y="402" width="16" height="16" transform="rotate(0,314,410)"/><rect x="306" y="466" width="16" height="16" transform="rotate(0,314,474)"/><rect x="322" y="18" width="16" height="16" transform="rotate(0,330,26)"/><rect x="322" y="34" width="16" height="16" transform="rotate(0,330,42)"/><rect x="322" y="50" width="16" height="16" transform="rotate(0,330,58)"/><rect x="322" y="66" width="16" height="16" transform="rotate(0,330,74)"/><rect x="322" y="82" width="16" height="16" transform="rotate(0,330,90)"/><rect x="322" y="98" width="16" height="16" transform="rotate(0,330,106)"/><rect x="322" y="130" width="16" height="16" transform="rotate(0,330,138)"/><rect x="322" y="162" width="16" height="16" transform="rotate(0,330,170)"/><rect x="322" y="178" width="16" height="16" transform="rotate(0,330,186)"/><rect x="322" y="194" width="16" height="16" transform="rotate(0,330,202)"/><rect x="322" y="210" width="16" height="16" transform="rotate(0,330,218)"/><rect x="322" y="258" width="16" height="16" transform="rotate(0,330,266)"/><rect x="322" y="274" width="16" height="16" transform="rotate(0,330,282)"/><rect x="322" y="354" width="16" height="16" transform="rotate(0,330,362)"/><rect x="322" y="370" width="16" height="16" transform="rotate(0,330,378)"/><rect x="322" y="386" width="16" height="16" transform="rotate(0,330,394)"/><rect x="322" y="402" width="16" height="16" transform="rotate(0,330,410)"/><rect x="322" y="434" width="16" height="16" transform="rotate(0,330,442)"/><rect x="322" y="450" width="16" height="16" transform="rotate(0,330,458)"/><rect x="322" y="466" width="16" height="16" transform="rotate(0,330,474)"/><rect x="338" y="18" width="16" height="16" transform="rotate(0,346,26)"/><rect x="338" y="34" width="16" height="16" transform="rotate(0,346,42)"/><rect x="338" y="66" width="16" height="16" transform="rotate(0,346,74)"/><rect x="338" y="98" width="16" height="16" transform="rotate(0,346,106)"/><rect x="338" y="114" width="16" height="16" transform="rotate(0,346,122)"/><rect x="338" y="178" width="16" height="16" transform="rotate(0,346,186)"/><rect x="338" y="194" width="16" height="16" transform="rotate(0,346,202)"/><rect x="338" y="210" width="16" height="16" transform="rotate(0,346,218)"/><rect x="338" y="226" width="16" height="16" transform="rotate(0,346,234)"/><rect x="338" y="290" width="16" height="16" transform="rotate(0,346,298)"/><rect x="338" y="338" width="16" height="16" transform="rotate(0,346,346)"/><rect x="338" y="354" width="16" height="16" transform="rotate(0,346,362)"/><rect x="338" y="370" width="16" height="16" transform="rotate(0,346,378)"/><rect x="338" y="386" width="16" height="16" transform="rotate(0,346,394)"/><rect x="338" y="402" width="16" height="16" transform="rotate(0,346,410)"/><rect x="338" y="418" width="16" height="16" transform="rotate(0,346,426)"/><rect x="338" y="434" width="16" height="16" transform="rotate(0,346,442)"/><rect x="338" y="450" width="16" height="16" transform="rotate(0,346,458)"/><rect x="354" y="146" width="16" height="16" transform="rotate(0,362,154)"/><rect x="354" y="178" width="16" height="16" transform="rotate(0,362,186)"/><rect x="354" y="210" width="16" height="16" transform="rotate(0,362,218)"/><rect x="354" y="226" width="16" height="16" transform="rotate(0,362,234)"/><rect x="354" y="242" width="16" height="16" transform="rotate(0,362,250)"/><rect x="354" y="258" width="16" height="16" transform="rotate(0,362,266)"/><rect x="354" y="290" width="16" height="16" transform="rotate(0,362,298)"/><rect x="354" y="338" width="16" height="16" transform="rotate(0,362,346)"/><rect x="354" y="402" width="16" height="16" transform="rotate(0,362,410)"/><rect x="354" y="418" width="16" height="16" transform="rotate(0,362,426)"/><rect x="354" y="434" width="16" height="16" transform="rotate(0,362,442)"/><rect x="370" y="178" width="16" height="16" transform="rotate(0,378,186)"/><rect x="370" y="226" width="16" height="16" transform="rotate(0,378,234)"/><rect x="370" y="258" width="16" height="16" transform="rotate(0,378,266)"/><rect x="370" y="274" width="16" height="16" transform="rotate(0,378,282)"/><rect x="370" y="322" width="16" height="16" transform="rotate(0,378,330)"/><rect x="370" y="338" width="16" height="16" transform="rotate(0,378,346)"/><rect x="370" y="370" width="16" height="16" transform="rotate(0,378,378)"/><rect x="370" y="402" width="16" height="16" transform="rotate(0,378,410)"/><rect x="370" y="434" width="16" height="16" transform="rotate(0,378,442)"/><rect x="386" y="146" width="16" height="16" transform="rotate(0,394,154)"/><rect x="386" y="162" width="16" height="16" transform="rotate(0,394,170)"/><rect x="386" y="194" width="16" height="16" transform="rotate(0,394,202)"/><rect x="386" y="226" width="16" height="16" transform="rotate(0,394,234)"/><rect x="386" y="258" width="16" height="16" transform="rotate(0,394,266)"/><rect x="386" y="306" width="16" height="16" transform="rotate(0,394,314)"/><rect x="386" y="322" width="16" height="16" transform="rotate(0,394,330)"/><rect x="386" y="338" width="16" height="16" transform="rotate(0,394,346)"/><rect x="386" y="402" width="16" height="16" transform="rotate(0,394,410)"/><rect x="386" y="418" width="16" height="16" transform="rotate(0,394,426)"/><rect x="386" y="450" width="16" height="16" transform="rotate(0,394,458)"/><rect x="402" y="146" width="16" height="16" transform="rotate(0,410,154)"/><rect x="402" y="162" width="16" height="16" transform="rotate(0,410,170)"/><rect x="402" y="178" width="16" height="16" transform="rotate(0,410,186)"/><rect x="402" y="194" width="16" height="16" transform="rotate(0,410,202)"/><rect x="402" y="290" width="16" height="16" transform="rotate(0,410,298)"/><rect x="402" y="322" width="16" height="16" transform="rotate(0,410,330)"/><rect x="402" y="338" width="16" height="16" transform="rotate(0,410,346)"/><rect x="402" y="354" width="16" height="16" transform="rotate(0,410,362)"/><rect x="402" y="370" width="16" height="16" transform="rotate(0,410,378)"/><rect x="402" y="386" width="16" height="16" transform="rotate(0,410,394)"/><rect x="402" y="402" width="16" height="16" transform="rotate(0,410,410)"/><rect x="402" y="450" width="16" height="16" transform="rotate(0,410,458)"/><rect x="402" y="466" width="16" height="16" transform="rotate(0,410,474)"/><rect x="418" y="146" width="16" height="16" transform="rotate(0,426,154)"/><rect x="418" y="194" width="16" height="16" transform="rotate(0,426,202)"/><rect x="418" y="226" width="16" height="16" transform="rotate(0,426,234)"/><rect x="418" y="306" width="16" height="16" transform="rotate(0,426,314)"/><rect x="418" y="386" width="16" height="16" transform="rotate(0,426,394)"/><rect x="418" y="434" width="16" height="16" transform="rotate(0,426,442)"/><rect x="418" y="450" width="16" height="16" transform="rotate(0,426,458)"/><rect x="434" y="162" width="16" height="16" transform="rotate(0,442,170)"/><rect x="434" y="178" width="16" height="16" transform="rotate(0,442,186)"/><rect x="434" y="242" width="16" height="16" transform="rotate(0,442,250)"/><rect x="434" y="258" width="16" height="16" transform="rotate(0,442,266)"/><rect x="434" y="338" width="16" height="16" transform="rotate(0,442,346)"/><rect x="434" y="354" width="16" height="16" transform="rotate(0,442,362)"/><rect x="434" y="386" width="16" height="16" transform="rotate(0,442,394)"/><rect x="434" y="402" width="16" height="16" transform="rotate(0,442,410)"/><rect x="434" y="450" width="16" height="16" transform="rotate(0,442,458)"/><rect x="434" y="466" width="16" height="16" transform="rotate(0,442,474)"/><rect x="450" y="146" width="16" height="16" transform="rotate(0,458,154)"/><rect x="450" y="162" width="16" height="16" transform="rotate(0,458,170)"/><rect x="450" y="274" width="16" height="16" transform="rotate(0,458,282)"/><rect x="450" y="306" width="16" height="16" transform="rotate(0,458,314)"/><rect x="450" y="370" width="16" height="16" transform="rotate(0,458,378)"/><rect x="450" y="402" width="16" height="16" transform="rotate(0,458,410)"/><rect x="450" y="418" width="16" height="16" transform="rotate(0,458,426)"/><rect x="450" y="434" width="16" height="16" transform="rotate(0,458,442)"/><rect x="450" y="466" width="16" height="16" transform="rotate(0,458,474)"/><rect x="466" y="162" width="16" height="16" transform="rotate(0,474,170)"/><rect x="466" y="194" width="16" height="16" transform="rotate(0,474,202)"/><rect x="466" y="210" width="16" height="16" transform="rotate(0,474,218)"/><rect x="466" y="258" width="16" height="16" transform="rotate(0,474,266)"/><rect x="466" y="322" width="16" height="16" transform="rotate(0,474,330)"/><rect x="466" y="338" width="16" height="16" transform="rotate(0,474,346)"/><rect x="466" y="370" width="16" height="16" transform="rotate(0,474,378)"/><rect x="466" y="386" width="16" height="16" transform="rotate(0,474,394)"/><rect x="466" y="402" width="16" height="16" transform="rotate(0,474,410)"/></clipPath><clipPath id="clip-path-corners-square-color-0-0"><path clip-rule="evenodd" d="M 18 18v 112h 112v -112zM 34 34h 80v 80h -80z" transform="rotate(0,74,74)"/></clipPath><clipPath id="clip-path-corners-dot-color-0-0"><rect x="50" y="50" width="48" height="48" transform="rotate(0,74,74)"/></clipPath><clipPath id="clip-path-corners-square-color-1-0"><path clip-rule="evenodd" d="M 370 18v 112h 112v -112zM 386 34h 80v 80h -80z" transform="rotate(90,426,74)"/></clipPath><clipPath id="clip-path-corners-dot-color-1-0"><rect x="402" y="50" width="48" height="48" transform="rotate(90,426,74)"/></clipPath><clipPath id="clip-path-corners-square-color-0-1"><path clip-rule="evenodd" d="M 18 370v 112h 112v -112zM 34 386h 80v 80h -80z" transform="rotate(-90,74,426)"/></clipPath><clipPath id="clip-path-corners-dot-color-0-1"><rect x="50" y="402" width="48" height="48" transform="rotate(-90,74,426)"/></clipPath></defs><rect x="0" y="0" height="500" width="500" clip-path="url('#clip-path-background-color')" fill="#fff"/><rect x="0" y="0" height="500" width="500" clip-path="url('#clip-path-dot-color')" fill="#000000"/><rect x="18" y="18" height="112" width="112" clip-path="url('#clip-path-corners-square-color-0-0')" fill="#000000"/><rect x="50" y="50" height="48" width="48" clip-path="url('#clip-path-corners-dot-color-0-0')" fill="#000000"/><rect x="370" y="18" height="112" width="112" clip-path="url('#clip-path-corners-square-color-1-0')" fill="#000000"/><rect x="402" y="50" height="48" width="48" clip-path="url('#clip-path-corners-dot-color-1-0')" fill="#000000"/><rect x="18" y="370" height="112" width="112" clip-path="url('#clip-path-corners-square-color-0-1')" fill="#000000"/><rect x="50" y="402" height="48" width="48" clip-path="url('#clip-path-corners-dot-color-0-1')" fill="#000000"/></svg>