<?xml version="1.0" encoding="utf-8"?>
<!-- Generator: Adobe Illustrator 23.0.4, SVG Export Plug-In . SVG Version: 6.00 Build 0)  -->
<svg version="1.1" id="bottom-frame" xmlns="http://www.w3.org/2000/svg" xmlns:xlink="http://www.w3.org/1999/xlink" x="0px"
	 y="0px" viewBox="0 0 279.1 346.6" style="enable-background:new 0 0 279.1 346.6;" xml:space="preserve">
<style type="text/css">
	.frame-color{fill:#FF6600;}
	.background-color{fill:#ffffff;}
	.text-color{fill:#FFFFFF;}
</style>

<svg xmlns="http://www.w3.org/2000/svg" xmlns:xlink="http://www.w3.org/1999/xlink" version="1.1" width="259.9" height="259.9" viewBox="0 0 2000 2000" x="9.7" y="9.6" shape-rendering="crispEdges"><defs/><rect x="0" y="0" width="2000" height="2000" fill="#ffffff"/><rect x="629" y="173" width="57" height="57" fill="#002147"/><rect x="857" y="173" width="57" height="57" fill="#002147"/><rect x="914" y="173" width="57" height="57" fill="#002147"/><rect x="1028" y="173" width="57" height="57" fill="#002147"/><rect x="1199" y="173" width="57" height="57" fill="#002147"/><rect x="1256" y="173" width="57" height="57" fill="#002147"/><rect x="629" y="230" width="57" height="57" fill="#002147"/><rect x="857" y="230" width="57" height="57" fill="#002147"/><rect x="971" y="230" width="57" height="57" fill="#002147"/><rect x="1142" y="230" width="57" height="57" fill="#002147"/><rect x="1256" y="230" width="57" height="57" fill="#002147"/><rect x="1313" y="230" width="57" height="57" fill="#002147"/><rect x="629" y="287" width="57" height="57" fill="#002147"/><rect x="686" y="287" width="57" height="57" fill="#002147"/><rect x="800" y="287" width="57" height="57" fill="#002147"/><rect x="857" y="287" width="57" height="57" fill="#002147"/><rect x="914" y="287" width="57" height="57" fill="#002147"/><rect x="1085" y="287" width="57" height="57" fill="#002147"/><rect x="1313" y="287" width="57" height="57" fill="#002147"/><rect x="743" y="344" width="57" height="57" fill="#002147"/><rect x="914" y="344" width="57" height="57" fill="#002147"/><rect x="971" y="344" width="57" height="57" fill="#002147"/><rect x="1028" y="344" width="57" height="57" fill="#002147"/><rect x="1142" y="344" width="57" height="57" fill="#002147"/><rect x="1199" y="344" width="57" height="57" fill="#002147"/><rect x="1313" y="344" width="57" height="57" fill="#002147"/><rect x="743" y="401" width="57" height="57" fill="#002147"/><rect x="857" y="401" width="57" height="57" fill="#002147"/><rect x="914" y="401" width="57" height="57" fill="#002147"/><rect x="1199" y="401" width="57" height="57" fill="#002147"/><rect x="629" y="458" width="57" height="57" fill="#002147"/><rect x="686" y="458" width="57" height="57" fill="#002147"/><rect x="857" y="458" width="57" height="57" fill="#002147"/><rect x="914" y="458" width="57" height="57" fill="#002147"/><rect x="971" y="458" width="57" height="57" fill="#002147"/><rect x="1028" y="458" width="57" height="57" fill="#002147"/><rect x="1199" y="458" width="57" height="57" fill="#002147"/><rect x="1313" y="458" width="57" height="57" fill="#002147"/><rect x="629" y="515" width="57" height="57" fill="#002147"/><rect x="743" y="515" width="57" height="57" fill="#002147"/><rect x="857" y="515" width="57" height="57" fill="#002147"/><rect x="971" y="515" width="57" height="57" fill="#002147"/><rect x="1085" y="515" width="57" height="57" fill="#002147"/><rect x="1199" y="515" width="57" height="57" fill="#002147"/><rect x="1313" y="515" width="57" height="57" fill="#002147"/><rect x="629" y="572" width="57" height="57" fill="#002147"/><rect x="686" y="572" width="57" height="57" fill="#002147"/><rect x="914" y="572" width="57" height="57" fill="#002147"/><rect x="1028" y="572" width="57" height="57" fill="#002147"/><rect x="1085" y="572" width="57" height="57" fill="#002147"/><rect x="1199" y="572" width="57" height="57" fill="#002147"/><rect x="1256" y="572" width="57" height="57" fill="#002147"/><rect x="1313" y="572" width="57" height="57" fill="#002147"/><rect x="287" y="629" width="57" height="57" fill="#002147"/><rect x="344" y="629" width="57" height="57" fill="#002147"/><rect x="401" y="629" width="57" height="57" fill="#002147"/><rect x="515" y="629" width="57" height="57" fill="#002147"/><rect x="629" y="629" width="57" height="57" fill="#002147"/><rect x="800" y="629" width="57" height="57" fill="#002147"/><rect x="857" y="629" width="57" height="57" fill="#002147"/><rect x="914" y="629" width="57" height="57" fill="#002147"/><rect x="1199" y="629" width="57" height="57" fill="#002147"/><rect x="1313" y="629" width="57" height="57" fill="#002147"/><rect x="1370" y="629" width="57" height="57" fill="#002147"/><rect x="1427" y="629" width="57" height="57" fill="#002147"/><rect x="1484" y="629" width="57" height="57" fill="#002147"/><rect x="1655" y="629" width="57" height="57" fill="#002147"/><rect x="1712" y="629" width="57" height="57" fill="#002147"/><rect x="1769" y="629" width="57" height="57" fill="#002147"/><rect x="173" y="686" width="57" height="57" fill="#002147"/><rect x="230" y="686" width="57" height="57" fill="#002147"/><rect x="344" y="686" width="57" height="57" fill="#002147"/><rect x="401" y="686" width="57" height="57" fill="#002147"/><rect x="1370" y="686" width="57" height="57" fill="#002147"/><rect x="1427" y="686" width="57" height="57" fill="#002147"/><rect x="1541" y="686" width="57" height="57" fill="#002147"/><rect x="1712" y="686" width="57" height="57" fill="#002147"/><rect x="1769" y="686" width="57" height="57" fill="#002147"/><rect x="230" y="743" width="57" height="57" fill="#002147"/><rect x="401" y="743" width="57" height="57" fill="#002147"/><rect x="458" y="743" width="57" height="57" fill="#002147"/><rect x="515" y="743" width="57" height="57" fill="#002147"/><rect x="572" y="743" width="57" height="57" fill="#002147"/><rect x="1313" y="743" width="57" height="57" fill="#002147"/><rect x="1655" y="743" width="57" height="57" fill="#002147"/><rect x="344" y="800" width="57" height="57" fill="#002147"/><rect x="401" y="800" width="57" height="57" fill="#002147"/><rect x="458" y="800" width="57" height="57" fill="#002147"/><rect x="572" y="800" width="57" height="57" fill="#002147"/><rect x="1313" y="800" width="57" height="57" fill="#002147"/><rect x="1427" y="800" width="57" height="57" fill="#002147"/><rect x="1484" y="800" width="57" height="57" fill="#002147"/><rect x="1541" y="800" width="57" height="57" fill="#002147"/><rect x="1598" y="800" width="57" height="57" fill="#002147"/><rect x="1655" y="800" width="57" height="57" fill="#002147"/><rect x="173" y="857" width="57" height="57" fill="#002147"/><rect x="230" y="857" width="57" height="57" fill="#002147"/><rect x="287" y="857" width="57" height="57" fill="#002147"/><rect x="458" y="857" width="57" height="57" fill="#002147"/><rect x="515" y="857" width="57" height="57" fill="#002147"/><rect x="1313" y="857" width="57" height="57" fill="#002147"/><rect x="1370" y="857" width="57" height="57" fill="#002147"/><rect x="1541" y="857" width="57" height="57" fill="#002147"/><rect x="1655" y="857" width="57" height="57" fill="#002147"/><rect x="1712" y="857" width="57" height="57" fill="#002147"/><rect x="173" y="914" width="57" height="57" fill="#002147"/><rect x="401" y="914" width="57" height="57" fill="#002147"/><rect x="572" y="914" width="57" height="57" fill="#002147"/><rect x="629" y="914" width="57" height="57" fill="#002147"/><rect x="1313" y="914" width="57" height="57" fill="#002147"/><rect x="1427" y="914" width="57" height="57" fill="#002147"/><rect x="1541" y="914" width="57" height="57" fill="#002147"/><rect x="1598" y="914" width="57" height="57" fill="#002147"/><rect x="1769" y="914" width="57" height="57" fill="#002147"/><rect x="173" y="971" width="57" height="57" fill="#002147"/><rect x="344" y="971" width="57" height="57" fill="#002147"/><rect x="458" y="971" width="57" height="57" fill="#002147"/><rect x="515" y="971" width="57" height="57" fill="#002147"/><rect x="572" y="971" width="57" height="57" fill="#002147"/><rect x="629" y="971" width="57" height="57" fill="#002147"/><rect x="1484" y="971" width="57" height="57" fill="#002147"/><rect x="1655" y="971" width="57" height="57" fill="#002147"/><rect x="1769" y="971" width="57" height="57" fill="#002147"/><rect x="230" y="1028" width="57" height="57" fill="#002147"/><rect x="287" y="1028" width="57" height="57" fill="#002147"/><rect x="401" y="1028" width="57" height="57" fill="#002147"/><rect x="572" y="1028" width="57" height="57" fill="#002147"/><rect x="1370" y="1028" width="57" height="57" fill="#002147"/><rect x="1427" y="1028" width="57" height="57" fill="#002147"/><rect x="1484" y="1028" width="57" height="57" fill="#002147"/><rect x="1541" y="1028" width="57" height="57" fill="#002147"/><rect x="1655" y="1028" width="57" height="57" fill="#002147"/><rect x="1712" y="1028" width="57" height="57" fill="#002147"/><rect x="1769" y="1028" width="57" height="57" fill="#002147"/><rect x="173" y="1085" width="57" height="57" fill="#002147"/><rect x="230" y="1085" width="57" height="57" fill="#002147"/><rect x="401" y="1085" width="57" height="57" fill="#002147"/><rect x="458" y="1085" width="57" height="57" fill="#002147"/><rect x="515" y="1085" width="57" height="57" fill="#002147"/><rect x="572" y="1085" width="57" height="57" fill="#002147"/><rect x="1313" y="1085" width="57" height="57" fill="#002147"/><rect x="1484" y="1085" width="57" height="57" fill="#002147"/><rect x="173" y="1142" width="57" height="57" fill="#002147"/><rect x="458" y="1142" width="57" height="57" fill="#002147"/><rect x="629" y="1142" width="57" height="57" fill="#002147"/><rect x="1427" y="1142" width="57" height="57" fill="#002147"/><rect x="1484" y="1142" width="57" height="57" fill="#002147"/><rect x="1598" y="1142" width="57" height="57" fill="#002147"/><rect x="1712" y="1142" width="57" height="57" fill="#002147"/><rect x="173" y="1199" width="57" height="57" fill="#002147"/><rect x="287" y="1199" width="57" height="57" fill="#002147"/><rect x="401" y="1199" width="57" height="57" fill="#002147"/><rect x="515" y="1199" width="57" height="57" fill="#002147"/><rect x="1370" y="1199" width="57" height="57" fill="#002147"/><rect x="1655" y="1199" width="57" height="57" fill="#002147"/><rect x="173" y="1256" width="57" height="57" fill="#002147"/><rect x="287" y="1256" width="57" height="57" fill="#002147"/><rect x="458" y="1256" width="57" height="57" fill="#002147"/><rect x="629" y="1256" width="57" height="57" fill="#002147"/><rect x="1313" y="1256" width="57" height="57" fill="#002147"/><rect x="1427" y="1256" width="57" height="57" fill="#002147"/><rect x="1541" y="1256" width="57" height="57" fill="#002147"/><rect x="1598" y="1256" width="57" height="57" fill="#002147"/><rect x="1712" y="1256" width="57" height="57" fill="#002147"/><rect x="1769" y="1256" width="57" height="57" fill="#002147"/><rect x="173" y="1313" width="57" height="57" fill="#002147"/><rect x="287" y="1313" width="57" height="57" fill="#002147"/><rect x="344" y="1313" width="57" height="57" fill="#002147"/><rect x="515" y="1313" width="57" height="57" fill="#002147"/><rect x="572" y="1313" width="57" height="57" fill="#002147"/><rect x="857" y="1313" width="57" height="57" fill="#002147"/><rect x="914" y="1313" width="57" height="57" fill="#002147"/><rect x="1028" y="1313" width="57" height="57" fill="#002147"/><rect x="1199" y="1313" width="57" height="57" fill="#002147"/><rect x="1313" y="1313" width="57" height="57" fill="#002147"/><rect x="1370" y="1313" width="57" height="57" fill="#002147"/><rect x="1427" y="1313" width="57" height="57" fill="#002147"/><rect x="1484" y="1313" width="57" height="57" fill="#002147"/><rect x="1541" y="1313" width="57" height="57" fill="#002147"/><rect x="1712" y="1313" width="57" height="57" fill="#002147"/><rect x="1769" y="1313" width="57" height="57" fill="#002147"/><rect x="629" y="1370" width="57" height="57" fill="#002147"/><rect x="857" y="1370" width="57" height="57" fill="#002147"/><rect x="914" y="1370" width="57" height="57" fill="#002147"/><rect x="971" y="1370" width="57" height="57" fill="#002147"/><rect x="1028" y="1370" width="57" height="57" fill="#002147"/><rect x="1085" y="1370" width="57" height="57" fill="#002147"/><rect x="1199" y="1370" width="57" height="57" fill="#002147"/><rect x="1256" y="1370" width="57" height="57" fill="#002147"/><rect x="1313" y="1370" width="57" height="57" fill="#002147"/><rect x="1541" y="1370" width="57" height="57" fill="#002147"/><rect x="1598" y="1370" width="57" height="57" fill="#002147"/><rect x="1769" y="1370" width="57" height="57" fill="#002147"/><rect x="743" y="1427" width="57" height="57" fill="#002147"/><rect x="971" y="1427" width="57" height="57" fill="#002147"/><rect x="1256" y="1427" width="57" height="57" fill="#002147"/><rect x="1313" y="1427" width="57" height="57" fill="#002147"/><rect x="1427" y="1427" width="57" height="57" fill="#002147"/><rect x="1541" y="1427" width="57" height="57" fill="#002147"/><rect x="1598" y="1427" width="57" height="57" fill="#002147"/><rect x="1655" y="1427" width="57" height="57" fill="#002147"/><rect x="1712" y="1427" width="57" height="57" fill="#002147"/><rect x="743" y="1484" width="57" height="57" fill="#002147"/><rect x="1142" y="1484" width="57" height="57" fill="#002147"/><rect x="1256" y="1484" width="57" height="57" fill="#002147"/><rect x="1313" y="1484" width="57" height="57" fill="#002147"/><rect x="1541" y="1484" width="57" height="57" fill="#002147"/><rect x="1598" y="1484" width="57" height="57" fill="#002147"/><rect x="1712" y="1484" width="57" height="57" fill="#002147"/><rect x="1769" y="1484" width="57" height="57" fill="#002147"/><rect x="629" y="1541" width="57" height="57" fill="#002147"/><rect x="743" y="1541" width="57" height="57" fill="#002147"/><rect x="800" y="1541" width="57" height="57" fill="#002147"/><rect x="1028" y="1541" width="57" height="57" fill="#002147"/><rect x="1085" y="1541" width="57" height="57" fill="#002147"/><rect x="1142" y="1541" width="57" height="57" fill="#002147"/><rect x="1256" y="1541" width="57" height="57" fill="#002147"/><rect x="1313" y="1541" width="57" height="57" fill="#002147"/><rect x="1370" y="1541" width="57" height="57" fill="#002147"/><rect x="1427" y="1541" width="57" height="57" fill="#002147"/><rect x="1484" y="1541" width="57" height="57" fill="#002147"/><rect x="1541" y="1541" width="57" height="57" fill="#002147"/><rect x="629" y="1598" width="57" height="57" fill="#002147"/><rect x="686" y="1598" width="57" height="57" fill="#002147"/><rect x="743" y="1598" width="57" height="57" fill="#002147"/><rect x="800" y="1598" width="57" height="57" fill="#002147"/><rect x="914" y="1598" width="57" height="57" fill="#002147"/><rect x="971" y="1598" width="57" height="57" fill="#002147"/><rect x="1028" y="1598" width="57" height="57" fill="#002147"/><rect x="1085" y="1598" width="57" height="57" fill="#002147"/><rect x="1142" y="1598" width="57" height="57" fill="#002147"/><rect x="1199" y="1598" width="57" height="57" fill="#002147"/><rect x="1313" y="1598" width="57" height="57" fill="#002147"/><rect x="1370" y="1598" width="57" height="57" fill="#002147"/><rect x="1427" y="1598" width="57" height="57" fill="#002147"/><rect x="1541" y="1598" width="57" height="57" fill="#002147"/><rect x="1598" y="1598" width="57" height="57" fill="#002147"/><rect x="629" y="1655" width="57" height="57" fill="#002147"/><rect x="686" y="1655" width="57" height="57" fill="#002147"/><rect x="857" y="1655" width="57" height="57" fill="#002147"/><rect x="914" y="1655" width="57" height="57" fill="#002147"/><rect x="971" y="1655" width="57" height="57" fill="#002147"/><rect x="1028" y="1655" width="57" height="57" fill="#002147"/><rect x="1085" y="1655" width="57" height="57" fill="#002147"/><rect x="1142" y="1655" width="57" height="57" fill="#002147"/><rect x="1199" y="1655" width="57" height="57" fill="#002147"/><rect x="1370" y="1655" width="57" height="57" fill="#002147"/><rect x="1427" y="1655" width="57" height="57" fill="#002147"/><rect x="1484" y="1655" width="57" height="57" fill="#002147"/><rect x="1541" y="1655" width="57" height="57" fill="#002147"/><rect x="1655" y="1655" width="57" height="57" fill="#002147"/><rect x="1712" y="1655" width="57" height="57" fill="#002147"/><rect x="686" y="1712" width="57" height="57" fill="#002147"/><rect x="800" y="1712" width="57" height="57" fill="#002147"/><rect x="971" y="1712" width="57" height="57" fill="#002147"/><rect x="1142" y="1712" width="57" height="57" fill="#002147"/><rect x="1199" y="1712" width="57" height="57" fill="#002147"/><rect x="1256" y="1712" width="57" height="57" fill="#002147"/><rect x="1313" y="1712" width="57" height="57" fill="#002147"/><rect x="1370" y="1712" width="57" height="57" fill="#002147"/><rect x="1484" y="1712" width="57" height="57" fill="#002147"/><rect x="1598" y="1712" width="57" height="57" fill="#002147"/><rect x="1769" y="1712" width="57" height="57" fill="#002147"/><rect x="743" y="1769" width="57" height="57" fill="#002147"/><rect x="800" y="1769" width="57" height="57" fill="#002147"/><rect x="971" y="1769" width="57" height="57" fill="#002147"/><rect x="1142" y="1769" width="57" height="57" fill="#002147"/><rect x="1199" y="1769" width="57" height="57" fill="#002147"/><rect x="1256" y="1769" width="57" height="57" fill="#002147"/><rect x="1427" y="1769" width="57" height="57" fill="#002147"/><rect x="1484" y="1769" width="57" height="57" fill="#002147"/><rect x="1541" y="1769" width="57" height="57" fill="#002147"/><rect x="1598" y="1769" width="57" height="57" fill="#002147"/><svg version="1.1" id="Ebene_1" x="173" y="173" viewBox="0 0 700 700" style="enable-background:new 0 0 700 700;" xml:space="preserve" width="399" height="399" shape-rendering="auto">

<path fill="#002147" d="M21.2-0.1C9.5-0.1-0.1,9.5-0.1,21.2v78.8v100v100v100v100v100v78.8c0,11.7,9.5,21.3,21.3,21.3h657.6  c11.7,0,21.3-9.5,21.3-21.3V600V500V400V300V200v-100V21.2c0-11.7-9.5-21.3-21.3-21.3H21.2z M600,200v100v100v100v87.8  c0,6.8-5.5,12.2-12.2,12.2H112.2c-6.8,0-12.2-5.5-12.2-12.2V500V400V300V200v-87.8c0-6.8,5.5-12.2,12.2-12.2h475.6  c6.8,0,12.2,5.5,12.2,12.2V200z"/>
</svg>
<svg version="1.1" id="Ebene_1" x="173" y="173" viewBox="0 0 700 700" style="enable-background:new 0 0 700 700;" xml:space="preserve" width="399" height="399" shape-rendering="auto">

<path fill="#000000" d="M500,400V300v-78.8c0-11.7-9.5-21.3-21.3-21.3H221.2c-11.7,0-21.3,9.5-21.3,21.3V300v100v78.8    c0,11.7,9.5,21.3,21.3,21.3h257.5c11.7,0,21.3-9.5,21.3-21.3V400z"/>
</svg>
<svg version="1.1" id="Ebene_1" x="1427" y="173" viewBox="0 0 700 700" style="enable-background:new 0 0 700 700;" xml:space="preserve" width="399" height="399" shape-rendering="auto">

<path fill="#002147" d="M21.2-0.1C9.5-0.1-0.1,9.5-0.1,21.2v78.8v100v100v100v100v100v78.8c0,11.7,9.5,21.3,21.3,21.3h657.6  c11.7,0,21.3-9.5,21.3-21.3V600V500V400V300V200v-100V21.2c0-11.7-9.5-21.3-21.3-21.3H21.2z M600,200v100v100v100v87.8  c0,6.8-5.5,12.2-12.2,12.2H112.2c-6.8,0-12.2-5.5-12.2-12.2V500V400V300V200v-87.8c0-6.8,5.5-12.2,12.2-12.2h475.6  c6.8,0,12.2,5.5,12.2,12.2V200z"/>
</svg>
<svg version="1.1" id="Ebene_1" x="1427" y="173" viewBox="0 0 700 700" style="enable-background:new 0 0 700 700;" xml:space="preserve" width="399" height="399" shape-rendering="auto">

<path fill="#000000" d="M500,400V300v-78.8c0-11.7-9.5-21.3-21.3-21.3H221.2c-11.7,0-21.3,9.5-21.3,21.3V300v100v78.8    c0,11.7,9.5,21.3,21.3,21.3h257.5c11.7,0,21.3-9.5,21.3-21.3V400z"/>
</svg>
<svg version="1.1" id="Ebene_1" x="173" y="1427" viewBox="0 0 700 700" style="enable-background:new 0 0 700 700;" xml:space="preserve" width="399" height="399" shape-rendering="auto">

<path fill="#002147" d="M21.2-0.1C9.5-0.1-0.1,9.5-0.1,21.2v78.8v100v100v100v100v100v78.8c0,11.7,9.5,21.3,21.3,21.3h657.6  c11.7,0,21.3-9.5,21.3-21.3V600V500V400V300V200v-100V21.2c0-11.7-9.5-21.3-21.3-21.3H21.2z M600,200v100v100v100v87.8  c0,6.8-5.5,12.2-12.2,12.2H112.2c-6.8,0-12.2-5.5-12.2-12.2V500V400V300V200v-87.8c0-6.8,5.5-12.2,12.2-12.2h475.6  c6.8,0,12.2,5.5,12.2,12.2V200z"/>
</svg>
<svg version="1.1" id="Ebene_1" x="173" y="1427" viewBox="0 0 700 700" style="enable-background:new 0 0 700 700;" xml:space="preserve" width="399" height="399" shape-rendering="auto">

<path fill="#000000" d="M500,400V300v-78.8c0-11.7-9.5-21.3-21.3-21.3H221.2c-11.7,0-21.3,9.5-21.3,21.3V300v100v78.8    c0,11.7,9.5,21.3,21.3,21.3h257.5c11.7,0,21.3-9.5,21.3-21.3V400z"/>
</svg>
<svg version="1.0" id="Layer_1" x="714" y="714" viewBox="0 0 700 700" enable-background="new 0 0 700 700" xml:space="preserve" width="570" height="570" shape-rendering="auto">
<g>
	<g>
		<polygon fill="#002147" points="115.7,584.3 115.7,414.3 87.5,414.3 87.5,584.3 87.5,612.5 115.7,612.5 285.7,612.5 285.7,584.3       "/>
		<polygon fill="#002147" points="115.7,115.7 285.7,115.7 285.7,87.5 115.7,87.5 87.5,87.5 87.5,115.7 87.5,285.7 115.7,285.7       "/>
		<polygon fill="#002147" points="584.3,115.7 584.3,285.7 612.5,285.7 612.5,115.7 612.5,87.5 584.3,87.5 414.3,87.5 414.3,115.7       "/>
		<polygon fill="#002147" points="584.3,584.3 414.3,584.3 414.3,612.5 584.3,612.5 612.5,612.5 612.5,584.3 612.5,414.3     584.3,414.3   "/>
		<g>
			<path fill="#002147" d="M246.1,274c0-3.3-1.2-6-3.6-8.1c-2.4-2-6.5-3.9-12.5-5.7c-10.4-3-18.2-6.5-23.5-10.6     c-5.3-4.1-7.9-9.7-7.9-16.8s3-13,9.1-17.5c6.1-4.5,13.8-6.8,23.3-6.8c9.6,0,17.3,2.5,23.4,7.6c6,5.1,8.9,11.3,8.7,18.8l-0.1,0.4     h-16.9c0-4-1.3-7.3-4-9.8c-2.7-2.5-6.5-3.7-11.3-3.7c-4.7,0-8.3,1-10.8,3.1s-3.8,4.7-3.8,7.9c0,2.9,1.4,5.4,4.1,7.3     c2.7,1.9,7.4,3.9,14.1,6c9.6,2.7,16.9,6.2,21.8,10.6c4.9,4.4,7.4,10.1,7.4,17.3c0,7.4-2.9,13.3-8.8,17.6     c-5.9,4.3-13.6,6.5-23.3,6.5c-9.5,0-17.7-2.4-24.8-7.3c-7.1-4.9-10.5-11.7-10.3-20.5l0.1-0.4h17c0,5.2,1.6,9,4.7,11.4     c3.2,2.4,7.6,3.6,13.2,3.6c4.7,0,8.4-1,10.9-2.9C244.9,279.9,246.1,277.3,246.1,274z"/>
			<path fill="#002147" d="M342.4,267.1l0.1,0.4c0.2,9.4-2.7,16.8-8.6,22.3c-5.9,5.5-14,8.2-24.5,8.2c-10.5,0-19-3.4-25.5-10.1     s-9.8-15.4-9.8-26v-17.3c0-10.6,3.2-19.2,9.6-26c6.4-6.8,14.7-10.2,24.9-10.2c10.8,0,19.2,2.8,25.2,8.3c6.1,5.5,9,13,8.8,22.6     l-0.1,0.4h-17c0-5.7-1.4-10.1-4.1-13.2c-2.7-3.1-7-4.6-12.8-4.6c-5.2,0-9.4,2.1-12.4,6.4c-3.1,4.2-4.6,9.6-4.6,16.2v17.4     c0,6.6,1.6,12.1,4.8,16.3c3.2,4.2,7.6,6.4,13.1,6.4c5.5,0,9.5-1.5,12.1-4.4c2.6-2.9,3.9-7.3,3.9-13.1H342.4z"/>
			<path fill="#002147" d="M401.6,278h-30.5l-5.9,18.8h-17.6l29.9-87h17.9l29.8,87h-17.6L401.6,278z M375.4,264.3h21.9l-10.8-34.2     h-0.4L375.4,264.3z"/>
			<path fill="#002147" d="M503.6,296.7h-17.4l-35.1-59.4l-0.4,0.1v59.4h-17.4v-87h17.4l35.1,59.4l0.4-0.1v-59.3h17.4V296.7z"/>
		</g>
		<g>
			<path fill="#002147" d="M224.4,329.3l51.6,131.6h0.7l51.6-131.6h28v162h-21.9v-64.1l2.2-65.9l-0.6-0.1l-52.5,130.1h-14.6     l-52.3-129.8l-0.6,0.1l2.1,65.5v64.1h-21.9v-162H224.4z"/>
			<path fill="#002147" d="M492.7,416.2h-74.2v57.9h85.6v17.2H396.6v-162h106.3v17.2h-84.4V399h74.2V416.2z"/>
		</g>
	</g>
</g>
</svg>
</svg>

<path id="FrameBody" class="frame-color" d="M13.7,346.6h251.7c7.6,0,13.7-6.2,13.7-13.7V13.7c0-7.6-6.2-13.7-13.7-13.7H13.8C6.2,0,0.1,6.2,0,13.7
	v319.2C0,340.5,6.2,346.6,13.7,346.6z M10.6,17.9c0-4.1,3.3-7.4,7.4-7.4h243.2c4.1,0,7.4,3.3,7.4,7.4v243.3c0,4.1-3.3,7.4-7.4,7.4
	H18c-4.1,0-7.4-3.3-7.4-7.4V17.9z"/>
<svg id="TextArea" x="10" y="275" width="260" height="70" viewBox="0 0 93.5322265625 17.588541666667" preserveAspectRatio="xMidYMid meet">
<svg version="1.1" xmlns="http://www.w3.org/2000/svg"><path class="text-color" fill="#FFFFFF" d=" M8.8515625,13.19140625l-0.9453125-2.43310546875l-3.115234375,0l-0.9345703125,2.43310546875l-0.9990234375,0l3.06689453125-7.884765625l0.8916015625,0l3.0615234375,7.884765625l-1.02587890625,0z M7.61083984375,9.8828125l-0.880859375-2.37939453125l-0.3759765625-1.17626953125q-0.1611328125,0.64453125-0.33837890625,1.17626953125l-0.8916015625,2.37939453125l2.48681640625,0z M15.984375,7.6484375q0,1.203125-0.82177734375,1.844970703125t-2.31494140625,0.641845703125l-0.90234375,0l0,3.05615234375l-0.98828125,0l0-7.8525390625l2.07861328125,0q2.94873046875,0,2.94873046875,2.3095703125z M11.9453125,9.28662109375l0.78955078125,0q1.1708984375,0,1.697265625-0.378662109375t0.5263671875-1.216552734375q0-0.75732421875-0.48876953125-1.13330078125t-1.525390625-0.3759765625l-0.9990234375,0l0,3.1044921875z M22.63916015625,7.6484375q0,1.203125-0.82177734375,1.844970703125t-2.31494140625,0.641845703125l-0.90234375,0l0,3.05615234375l-0.98828125,0l0-7.8525390625l2.07861328125,0q2.94873046875,0,2.94873046875,2.3095703125z M18.60009765625,9.28662109375l0.78955078125,0q1.1708984375,0,1.697265625-0.378662109375t0.5263671875-1.216552734375q0-0.75732421875-0.48876953125-1.13330078125t-1.525390625-0.3759765625l-0.9990234375,0l0,3.1044921875z  M33.41357421875,9.18994140625q0,1.9443359375-1.060791015625,2.972900390625t-3.042724609375,1.028564453125l-2.18603515625,0l0-7.8525390625l2.4169921875,0q1.83154296875,0,2.85205078125,1.007080078125t1.0205078125,2.843994140625z M32.37158203125,9.22216796875q0-1.49853515625-0.738525390625-2.269287109375t-2.231689453125-0.770751953125l-1.2890625,0l0,6.16064453125l1.06884765625,0q3.1904296875,0,3.1904296875-3.12060546875z M42.00732421875,9.25439453125q0,1.88525390625-0.953369140625,2.96484375t-2.666748046875,1.07958984375q-1.73486328125,0-2.682861328125-1.060791015625t-0.947998046875-2.994384765625q0-1.91748046875,0.942626953125-2.972900390625t2.698974609375-1.055419921875q1.7080078125,0,2.65869140625,1.071533203125t0.95068359375,2.967529296875z M35.79833984375,9.25439453125q0,1.5576171875,0.66064453125,2.3740234375t1.92822265625,0.81640625q1.26220703125,0,1.91748046875-0.8056640625t0.6552734375-2.384765625q0-1.57373046875-0.64990234375-2.371337890625t-1.912109375-0.797607421875q-1.2783203125,0-1.93896484375,0.808349609375t-0.66064453125,2.360595703125z M50.6708984375,13.19140625l-0.9990234375,0l-1.53076171875-5.1455078125q-0.33837890625-1.1494140625-0.3974609375-1.55224609375q-0.0859375,0.61767578125-0.3759765625,1.58447265625l-1.482421875,5.11328125l-0.9990234375,0l-2.07861328125-7.8525390625l1.03125,0l1.21923828125,4.79638671875q0.2470703125,0.93994140625,0.3759765625,1.869140625q0.1181640625-0.880859375,0.4189453125-1.92822265625l1.3857421875-4.7373046875l1.0205078125,0l1.44482421875,4.77490234375q0.279296875,0.92919921875,0.4296875,1.890625q0.0859375-0.7412109375,0.38134765625-1.8798828125l1.2138671875-4.78564453125l1.03125,0z M60.19921875,13.19140625l-1.15478515625,0l-4.20556640625-6.5205078125l-0.04296875,0l0.02685546875,0.43505859375q0.064453125,0.9775390625,0.064453125,1.697265625l0,4.38818359375l-0.9130859375,0l0-7.8525390625l1.14404296875,0l0.24169921875,0.38134765625l2.578125,3.9853515625l1.36962890625,2.13232421875l0.04296875,0q-0.0107421875-0.12890625-0.04296875-0.921142578125t-0.0322265625-1.146728515625l0-4.43115234375l0.923828125,0l0,7.8525390625z M62.33154296875,13.19140625l0-7.8525390625l0.98828125,0l0,6.9716796875l3.43212890625,0l0,0.880859375l-4.42041015625,0z M74.9482421875,9.25439453125q0,1.88525390625-0.953369140625,2.96484375t-2.666748046875,1.07958984375q-1.73486328125,0-2.682861328125-1.060791015625t-0.947998046875-2.994384765625q0-1.91748046875,0.942626953125-2.972900390625t2.698974609375-1.055419921875q1.7080078125,0,2.65869140625,1.071533203125t0.95068359375,2.967529296875z M68.7392578125,9.25439453125q0,1.5576171875,0.66064453125,2.3740234375t1.92822265625,0.81640625q1.26220703125,0,1.91748046875-0.8056640625t0.6552734375-2.384765625q0-1.57373046875-0.64990234375-2.371337890625t-1.912109375-0.797607421875q-1.2783203125,0-1.93896484375,0.808349609375t-0.66064453125,2.360595703125z M81.6083984375,13.19140625l-0.9453125-2.43310546875l-3.115234375,0l-0.9345703125,2.43310546875l-0.9990234375,0l3.06689453125-7.884765625l0.8916015625,0l3.0615234375,7.884765625l-1.02587890625,0z M80.36767578125,9.8828125l-0.880859375-2.37939453125l-0.3759765625-1.17626953125q-0.1611328125,0.64453125-0.33837890625,1.17626953125l-0.8916015625,2.37939453125l2.48681640625,0z M90.00341796875,9.18994140625q0,1.9443359375-1.060791015625,2.972900390625t-3.042724609375,1.028564453125l-2.18603515625,0l0-7.8525390625l2.4169921875,0q1.83154296875,0,2.85205078125,1.007080078125t1.0205078125,2.843994140625z M88.96142578125,9.22216796875q0-1.49853515625-0.738525390625-2.269287109375t-2.231689453125-0.770751953125l-1.2890625,0l0,6.16064453125l1.06884765625,0q3.1904296875,0,3.1904296875-3.12060546875z "/></svg>
</svg>

</svg>
